<mxfile host="65bd71144e">
    <diagram name="PÃ¡gina-1" id="FJeh2hEtDiyyv_dd8KmP">
        <mxGraphModel dx="835" dy="469" grid="1" gridSize="10" guides="1" tooltips="1" connect="1" arrows="1" fold="1" page="1" pageScale="1" pageWidth="850" pageHeight="1100" math="0" shadow="0">
            <root>
                <mxCell id="0"/>
                <mxCell id="1" parent="0"/>
                <mxCell id="TN94Z9QFUKXi0vEHUw8P-1" value="Company" style="shape=table;startSize=30;container=1;collapsible=1;childLayout=tableLayout;fixedRows=1;rowLines=0;fontStyle=1;align=center;resizeLast=1;html=1;" parent="1" vertex="1">
                    <mxGeometry x="640" y="200" width="199.97000000000003" height="240" as="geometry"/>
                </mxCell>
                <mxCell id="TN94Z9QFUKXi0vEHUw8P-2" value="" style="shape=tableRow;horizontal=0;startSize=0;swimlaneHead=0;swimlaneBody=0;fillColor=none;collapsible=0;dropTarget=0;points=[[0,0.5],[1,0.5]];portConstraint=eastwest;top=0;left=0;right=0;bottom=1;" parent="TN94Z9QFUKXi0vEHUw8P-1" vertex="1">
                    <mxGeometry y="30" width="199.97000000000003" height="30" as="geometry"/>
                </mxCell>
                <mxCell id="TN94Z9QFUKXi0vEHUw8P-3" value="PK" style="shape=partialRectangle;connectable=0;fillColor=none;top=0;left=0;bottom=0;right=0;fontStyle=1;overflow=hidden;whiteSpace=wrap;html=1;" parent="TN94Z9QFUKXi0vEHUw8P-2" vertex="1">
                    <mxGeometry width="30" height="30" as="geometry">
                        <mxRectangle width="30" height="30" as="alternateBounds"/>
                    </mxGeometry>
                </mxCell>
                <mxCell id="TN94Z9QFUKXi0vEHUw8P-4" value="UniqueID" style="shape=partialRectangle;connectable=0;fillColor=none;top=0;left=0;bottom=0;right=0;align=left;spacingLeft=6;fontStyle=5;overflow=hidden;whiteSpace=wrap;html=1;" parent="TN94Z9QFUKXi0vEHUw8P-2" vertex="1">
                    <mxGeometry x="30" width="169.97000000000003" height="30" as="geometry">
                        <mxRectangle width="169.97000000000003" height="30" as="alternateBounds"/>
                    </mxGeometry>
                </mxCell>
                <mxCell id="TN94Z9QFUKXi0vEHUw8P-5" value="" style="shape=tableRow;horizontal=0;startSize=0;swimlaneHead=0;swimlaneBody=0;fillColor=none;collapsible=0;dropTarget=0;points=[[0,0.5],[1,0.5]];portConstraint=eastwest;top=0;left=0;right=0;bottom=0;" parent="TN94Z9QFUKXi0vEHUw8P-1" vertex="1">
                    <mxGeometry y="60" width="199.97000000000003" height="30" as="geometry"/>
                </mxCell>
                <mxCell id="TN94Z9QFUKXi0vEHUw8P-6" value="" style="shape=partialRectangle;connectable=0;fillColor=none;top=0;left=0;bottom=0;right=0;editable=1;overflow=hidden;whiteSpace=wrap;html=1;" parent="TN94Z9QFUKXi0vEHUw8P-5" vertex="1">
                    <mxGeometry width="30" height="30" as="geometry">
                        <mxRectangle width="30" height="30" as="alternateBounds"/>
                    </mxGeometry>
                </mxCell>
                <mxCell id="TN94Z9QFUKXi0vEHUw8P-7" value="name: varchar(550)" style="shape=partialRectangle;connectable=0;fillColor=none;top=0;left=0;bottom=0;right=0;align=left;spacingLeft=6;overflow=hidden;whiteSpace=wrap;html=1;" parent="TN94Z9QFUKXi0vEHUw8P-5" vertex="1">
                    <mxGeometry x="30" width="169.97000000000003" height="30" as="geometry">
                        <mxRectangle width="169.97000000000003" height="30" as="alternateBounds"/>
                    </mxGeometry>
                </mxCell>
                <mxCell id="TN94Z9QFUKXi0vEHUw8P-8" value="" style="shape=tableRow;horizontal=0;startSize=0;swimlaneHead=0;swimlaneBody=0;fillColor=none;collapsible=0;dropTarget=0;points=[[0,0.5],[1,0.5]];portConstraint=eastwest;top=0;left=0;right=0;bottom=0;" parent="TN94Z9QFUKXi0vEHUw8P-1" vertex="1">
                    <mxGeometry y="90" width="199.97000000000003" height="30" as="geometry"/>
                </mxCell>
                <mxCell id="TN94Z9QFUKXi0vEHUw8P-9" value="" style="shape=partialRectangle;connectable=0;fillColor=none;top=0;left=0;bottom=0;right=0;editable=1;overflow=hidden;whiteSpace=wrap;html=1;" parent="TN94Z9QFUKXi0vEHUw8P-8" vertex="1">
                    <mxGeometry width="30" height="30" as="geometry">
                        <mxRectangle width="30" height="30" as="alternateBounds"/>
                    </mxGeometry>
                </mxCell>
                <mxCell id="TN94Z9QFUKXi0vEHUw8P-10" value="cnpj: varchar(14)" style="shape=partialRectangle;connectable=0;fillColor=none;top=0;left=0;bottom=0;right=0;align=left;spacingLeft=6;overflow=hidden;whiteSpace=wrap;html=1;" parent="TN94Z9QFUKXi0vEHUw8P-8" vertex="1">
                    <mxGeometry x="30" width="169.97000000000003" height="30" as="geometry">
                        <mxRectangle width="169.97000000000003" height="30" as="alternateBounds"/>
                    </mxGeometry>
                </mxCell>
                <mxCell id="TN94Z9QFUKXi0vEHUw8P-11" value="" style="shape=tableRow;horizontal=0;startSize=0;swimlaneHead=0;swimlaneBody=0;fillColor=none;collapsible=0;dropTarget=0;points=[[0,0.5],[1,0.5]];portConstraint=eastwest;top=0;left=0;right=0;bottom=0;" parent="TN94Z9QFUKXi0vEHUw8P-1" vertex="1">
                    <mxGeometry y="120" width="199.97000000000003" height="30" as="geometry"/>
                </mxCell>
                <mxCell id="TN94Z9QFUKXi0vEHUw8P-12" value="FK" style="shape=partialRectangle;connectable=0;fillColor=none;top=0;left=0;bottom=0;right=0;editable=1;overflow=hidden;whiteSpace=wrap;html=1;" parent="TN94Z9QFUKXi0vEHUw8P-11" vertex="1">
                    <mxGeometry width="30" height="30" as="geometry">
                        <mxRectangle width="30" height="30" as="alternateBounds"/>
                    </mxGeometry>
                </mxCell>
                <mxCell id="TN94Z9QFUKXi0vEHUw8P-13" value="planId: int" style="shape=partialRectangle;connectable=0;fillColor=none;top=0;left=0;bottom=0;right=0;align=left;spacingLeft=6;overflow=hidden;whiteSpace=wrap;html=1;" parent="TN94Z9QFUKXi0vEHUw8P-11" vertex="1">
                    <mxGeometry x="30" width="169.97000000000003" height="30" as="geometry">
                        <mxRectangle width="169.97000000000003" height="30" as="alternateBounds"/>
                    </mxGeometry>
                </mxCell>
                <mxCell id="TN94Z9QFUKXi0vEHUw8P-14" value="" style="shape=tableRow;horizontal=0;startSize=0;swimlaneHead=0;swimlaneBody=0;fillColor=none;collapsible=0;dropTarget=0;points=[[0,0.5],[1,0.5]];portConstraint=eastwest;top=0;left=0;right=0;bottom=0;" parent="TN94Z9QFUKXi0vEHUw8P-1" vertex="1">
                    <mxGeometry y="150" width="199.97000000000003" height="30" as="geometry"/>
                </mxCell>
                <mxCell id="TN94Z9QFUKXi0vEHUw8P-15" value="FK" style="shape=partialRectangle;connectable=0;fillColor=none;top=0;left=0;bottom=0;right=0;editable=1;overflow=hidden;whiteSpace=wrap;html=1;" parent="TN94Z9QFUKXi0vEHUw8P-14" vertex="1">
                    <mxGeometry width="30" height="30" as="geometry">
                        <mxRectangle width="30" height="30" as="alternateBounds"/>
                    </mxGeometry>
                </mxCell>
                <mxCell id="TN94Z9QFUKXi0vEHUw8P-16" value="c&lt;span style=&quot;background-color: initial;&quot;&gt;ontactId: int&lt;/span&gt;" style="shape=partialRectangle;connectable=0;fillColor=none;top=0;left=0;bottom=0;right=0;align=left;spacingLeft=6;overflow=hidden;whiteSpace=wrap;html=1;" parent="TN94Z9QFUKXi0vEHUw8P-14" vertex="1">
                    <mxGeometry x="30" width="169.97000000000003" height="30" as="geometry">
                        <mxRectangle width="169.97000000000003" height="30" as="alternateBounds"/>
                    </mxGeometry>
                </mxCell>
                <mxCell id="TN94Z9QFUKXi0vEHUw8P-17" value="" style="shape=tableRow;horizontal=0;startSize=0;swimlaneHead=0;swimlaneBody=0;fillColor=none;collapsible=0;dropTarget=0;points=[[0,0.5],[1,0.5]];portConstraint=eastwest;top=0;left=0;right=0;bottom=0;" parent="TN94Z9QFUKXi0vEHUw8P-1" vertex="1">
                    <mxGeometry y="180" width="199.97000000000003" height="30" as="geometry"/>
                </mxCell>
                <mxCell id="TN94Z9QFUKXi0vEHUw8P-18" value="FK" style="shape=partialRectangle;connectable=0;fillColor=none;top=0;left=0;bottom=0;right=0;editable=1;overflow=hidden;whiteSpace=wrap;html=1;" parent="TN94Z9QFUKXi0vEHUw8P-17" vertex="1">
                    <mxGeometry width="30" height="30" as="geometry">
                        <mxRectangle width="30" height="30" as="alternateBounds"/>
                    </mxGeometry>
                </mxCell>
                <mxCell id="TN94Z9QFUKXi0vEHUw8P-19" value="companySettingsId: int" style="shape=partialRectangle;connectable=0;fillColor=none;top=0;left=0;bottom=0;right=0;align=left;spacingLeft=6;overflow=hidden;whiteSpace=wrap;html=1;" parent="TN94Z9QFUKXi0vEHUw8P-17" vertex="1">
                    <mxGeometry x="30" width="169.97000000000003" height="30" as="geometry">
                        <mxRectangle width="169.97000000000003" height="30" as="alternateBounds"/>
                    </mxGeometry>
                </mxCell>
                <mxCell id="TN94Z9QFUKXi0vEHUw8P-20" value="" style="shape=tableRow;horizontal=0;startSize=0;swimlaneHead=0;swimlaneBody=0;fillColor=none;collapsible=0;dropTarget=0;points=[[0,0.5],[1,0.5]];portConstraint=eastwest;top=0;left=0;right=0;bottom=0;" parent="TN94Z9QFUKXi0vEHUw8P-1" vertex="1">
                    <mxGeometry y="210" width="199.97000000000003" height="30" as="geometry"/>
                </mxCell>
                <mxCell id="TN94Z9QFUKXi0vEHUw8P-21" value="FK" style="shape=partialRectangle;connectable=0;fillColor=none;top=0;left=0;bottom=0;right=0;editable=1;overflow=hidden;whiteSpace=wrap;html=1;" parent="TN94Z9QFUKXi0vEHUw8P-20" vertex="1">
                    <mxGeometry width="30" height="30" as="geometry">
                        <mxRectangle width="30" height="30" as="alternateBounds"/>
                    </mxGeometry>
                </mxCell>
                <mxCell id="TN94Z9QFUKXi0vEHUw8P-22" value="addressId: int" style="shape=partialRectangle;connectable=0;fillColor=none;top=0;left=0;bottom=0;right=0;align=left;spacingLeft=6;overflow=hidden;whiteSpace=wrap;html=1;" parent="TN94Z9QFUKXi0vEHUw8P-20" vertex="1">
                    <mxGeometry x="30" width="169.97000000000003" height="30" as="geometry">
                        <mxRectangle width="169.97000000000003" height="30" as="alternateBounds"/>
                    </mxGeometry>
                </mxCell>
                <mxCell id="TN94Z9QFUKXi0vEHUw8P-23" value="User" style="shape=table;startSize=30;container=1;collapsible=1;childLayout=tableLayout;fixedRows=1;rowLines=0;fontStyle=1;align=center;resizeLast=1;html=1;" parent="1" vertex="1">
                    <mxGeometry x="320" y="170" width="199.97000000000003" height="360" as="geometry"/>
                </mxCell>
                <mxCell id="TN94Z9QFUKXi0vEHUw8P-24" value="" style="shape=tableRow;horizontal=0;startSize=0;swimlaneHead=0;swimlaneBody=0;fillColor=none;collapsible=0;dropTarget=0;points=[[0,0.5],[1,0.5]];portConstraint=eastwest;top=0;left=0;right=0;bottom=1;" parent="TN94Z9QFUKXi0vEHUw8P-23" vertex="1">
                    <mxGeometry y="30" width="199.97000000000003" height="30" as="geometry"/>
                </mxCell>
                <mxCell id="TN94Z9QFUKXi0vEHUw8P-25" value="PK" style="shape=partialRectangle;connectable=0;fillColor=none;top=0;left=0;bottom=0;right=0;fontStyle=1;overflow=hidden;whiteSpace=wrap;html=1;" parent="TN94Z9QFUKXi0vEHUw8P-24" vertex="1">
                    <mxGeometry width="30" height="30" as="geometry">
                        <mxRectangle width="30" height="30" as="alternateBounds"/>
                    </mxGeometry>
                </mxCell>
                <mxCell id="TN94Z9QFUKXi0vEHUw8P-26" value="UniqueID" style="shape=partialRectangle;connectable=0;fillColor=none;top=0;left=0;bottom=0;right=0;align=left;spacingLeft=6;fontStyle=5;overflow=hidden;whiteSpace=wrap;html=1;" parent="TN94Z9QFUKXi0vEHUw8P-24" vertex="1">
                    <mxGeometry x="30" width="169.97000000000003" height="30" as="geometry">
                        <mxRectangle width="169.97000000000003" height="30" as="alternateBounds"/>
                    </mxGeometry>
                </mxCell>
                <mxCell id="TN94Z9QFUKXi0vEHUw8P-27" value="" style="shape=tableRow;horizontal=0;startSize=0;swimlaneHead=0;swimlaneBody=0;fillColor=none;collapsible=0;dropTarget=0;points=[[0,0.5],[1,0.5]];portConstraint=eastwest;top=0;left=0;right=0;bottom=0;" parent="TN94Z9QFUKXi0vEHUw8P-23" vertex="1">
                    <mxGeometry y="60" width="199.97000000000003" height="30" as="geometry"/>
                </mxCell>
                <mxCell id="TN94Z9QFUKXi0vEHUw8P-28" value="" style="shape=partialRectangle;connectable=0;fillColor=none;top=0;left=0;bottom=0;right=0;editable=1;overflow=hidden;whiteSpace=wrap;html=1;" parent="TN94Z9QFUKXi0vEHUw8P-27" vertex="1">
                    <mxGeometry width="30" height="30" as="geometry">
                        <mxRectangle width="30" height="30" as="alternateBounds"/>
                    </mxGeometry>
                </mxCell>
                <mxCell id="TN94Z9QFUKXi0vEHUw8P-29" value="name: Varchar(550)" style="shape=partialRectangle;connectable=0;fillColor=none;top=0;left=0;bottom=0;right=0;align=left;spacingLeft=6;overflow=hidden;whiteSpace=wrap;html=1;" parent="TN94Z9QFUKXi0vEHUw8P-27" vertex="1">
                    <mxGeometry x="30" width="169.97000000000003" height="30" as="geometry">
                        <mxRectangle width="169.97000000000003" height="30" as="alternateBounds"/>
                    </mxGeometry>
                </mxCell>
                <mxCell id="TN94Z9QFUKXi0vEHUw8P-30" value="" style="shape=tableRow;horizontal=0;startSize=0;swimlaneHead=0;swimlaneBody=0;fillColor=none;collapsible=0;dropTarget=0;points=[[0,0.5],[1,0.5]];portConstraint=eastwest;top=0;left=0;right=0;bottom=0;" parent="TN94Z9QFUKXi0vEHUw8P-23" vertex="1">
                    <mxGeometry y="90" width="199.97000000000003" height="30" as="geometry"/>
                </mxCell>
                <mxCell id="TN94Z9QFUKXi0vEHUw8P-31" value="" style="shape=partialRectangle;connectable=0;fillColor=none;top=0;left=0;bottom=0;right=0;editable=1;overflow=hidden;whiteSpace=wrap;html=1;" parent="TN94Z9QFUKXi0vEHUw8P-30" vertex="1">
                    <mxGeometry width="30" height="30" as="geometry">
                        <mxRectangle width="30" height="30" as="alternateBounds"/>
                    </mxGeometry>
                </mxCell>
                <mxCell id="TN94Z9QFUKXi0vEHUw8P-32" value="birthday: Date null" style="shape=partialRectangle;connectable=0;fillColor=none;top=0;left=0;bottom=0;right=0;align=left;spacingLeft=6;overflow=hidden;whiteSpace=wrap;html=1;" parent="TN94Z9QFUKXi0vEHUw8P-30" vertex="1">
                    <mxGeometry x="30" width="169.97000000000003" height="30" as="geometry">
                        <mxRectangle width="169.97000000000003" height="30" as="alternateBounds"/>
                    </mxGeometry>
                </mxCell>
                <mxCell id="TN94Z9QFUKXi0vEHUw8P-33" value="" style="shape=tableRow;horizontal=0;startSize=0;swimlaneHead=0;swimlaneBody=0;fillColor=none;collapsible=0;dropTarget=0;points=[[0,0.5],[1,0.5]];portConstraint=eastwest;top=0;left=0;right=0;bottom=0;" parent="TN94Z9QFUKXi0vEHUw8P-23" vertex="1">
                    <mxGeometry y="120" width="199.97000000000003" height="30" as="geometry"/>
                </mxCell>
                <mxCell id="TN94Z9QFUKXi0vEHUw8P-34" value="" style="shape=partialRectangle;connectable=0;fillColor=none;top=0;left=0;bottom=0;right=0;editable=1;overflow=hidden;whiteSpace=wrap;html=1;" parent="TN94Z9QFUKXi0vEHUw8P-33" vertex="1">
                    <mxGeometry width="30" height="30" as="geometry">
                        <mxRectangle width="30" height="30" as="alternateBounds"/>
                    </mxGeometry>
                </mxCell>
                <mxCell id="TN94Z9QFUKXi0vEHUw8P-35" value="email: varchar(225)" style="shape=partialRectangle;connectable=0;fillColor=none;top=0;left=0;bottom=0;right=0;align=left;spacingLeft=6;overflow=hidden;whiteSpace=wrap;html=1;" parent="TN94Z9QFUKXi0vEHUw8P-33" vertex="1">
                    <mxGeometry x="30" width="169.97000000000003" height="30" as="geometry">
                        <mxRectangle width="169.97000000000003" height="30" as="alternateBounds"/>
                    </mxGeometry>
                </mxCell>
                <mxCell id="TN94Z9QFUKXi0vEHUw8P-36" value="" style="shape=tableRow;horizontal=0;startSize=0;swimlaneHead=0;swimlaneBody=0;fillColor=none;collapsible=0;dropTarget=0;points=[[0,0.5],[1,0.5]];portConstraint=eastwest;top=0;left=0;right=0;bottom=0;" parent="TN94Z9QFUKXi0vEHUw8P-23" vertex="1">
                    <mxGeometry y="150" width="199.97000000000003" height="30" as="geometry"/>
                </mxCell>
                <mxCell id="TN94Z9QFUKXi0vEHUw8P-37" value="" style="shape=partialRectangle;connectable=0;fillColor=none;top=0;left=0;bottom=0;right=0;editable=1;overflow=hidden;whiteSpace=wrap;html=1;" parent="TN94Z9QFUKXi0vEHUw8P-36" vertex="1">
                    <mxGeometry width="30" height="30" as="geometry">
                        <mxRectangle width="30" height="30" as="alternateBounds"/>
                    </mxGeometry>
                </mxCell>
                <mxCell id="TN94Z9QFUKXi0vEHUw8P-38" value="hash: varchar(MAX)" style="shape=partialRectangle;connectable=0;fillColor=none;top=0;left=0;bottom=0;right=0;align=left;spacingLeft=6;overflow=hidden;whiteSpace=wrap;html=1;" parent="TN94Z9QFUKXi0vEHUw8P-36" vertex="1">
                    <mxGeometry x="30" width="169.97000000000003" height="30" as="geometry">
                        <mxRectangle width="169.97000000000003" height="30" as="alternateBounds"/>
                    </mxGeometry>
                </mxCell>
                <mxCell id="TN94Z9QFUKXi0vEHUw8P-39" value="" style="shape=tableRow;horizontal=0;startSize=0;swimlaneHead=0;swimlaneBody=0;fillColor=none;collapsible=0;dropTarget=0;points=[[0,0.5],[1,0.5]];portConstraint=eastwest;top=0;left=0;right=0;bottom=0;" parent="TN94Z9QFUKXi0vEHUw8P-23" vertex="1">
                    <mxGeometry y="180" width="199.97000000000003" height="30" as="geometry"/>
                </mxCell>
                <mxCell id="TN94Z9QFUKXi0vEHUw8P-40" value="" style="shape=partialRectangle;connectable=0;fillColor=none;top=0;left=0;bottom=0;right=0;editable=1;overflow=hidden;whiteSpace=wrap;html=1;" parent="TN94Z9QFUKXi0vEHUw8P-39" vertex="1">
                    <mxGeometry width="30" height="30" as="geometry">
                        <mxRectangle width="30" height="30" as="alternateBounds"/>
                    </mxGeometry>
                </mxCell>
                <mxCell id="TN94Z9QFUKXi0vEHUw8P-41" value="phone: varchar(25)" style="shape=partialRectangle;connectable=0;fillColor=none;top=0;left=0;bottom=0;right=0;align=left;spacingLeft=6;overflow=hidden;whiteSpace=wrap;html=1;" parent="TN94Z9QFUKXi0vEHUw8P-39" vertex="1">
                    <mxGeometry x="30" width="169.97000000000003" height="30" as="geometry">
                        <mxRectangle width="169.97000000000003" height="30" as="alternateBounds"/>
                    </mxGeometry>
                </mxCell>
                <mxCell id="TTbelKC414xdq9f2QRjn-6" value="" style="shape=tableRow;horizontal=0;startSize=0;swimlaneHead=0;swimlaneBody=0;fillColor=none;collapsible=0;dropTarget=0;points=[[0,0.5],[1,0.5]];portConstraint=eastwest;top=0;left=0;right=0;bottom=0;" parent="TN94Z9QFUKXi0vEHUw8P-23" vertex="1">
                    <mxGeometry y="210" width="199.97000000000003" height="30" as="geometry"/>
                </mxCell>
                <mxCell id="TTbelKC414xdq9f2QRjn-7" value="" style="shape=partialRectangle;connectable=0;fillColor=none;top=0;left=0;bottom=0;right=0;editable=1;overflow=hidden;whiteSpace=wrap;html=1;" parent="TTbelKC414xdq9f2QRjn-6" vertex="1">
                    <mxGeometry width="30" height="30" as="geometry">
                        <mxRectangle width="30" height="30" as="alternateBounds"/>
                    </mxGeometry>
                </mxCell>
                <mxCell id="TTbelKC414xdq9f2QRjn-8" value="document: varchar(75)" style="shape=partialRectangle;connectable=0;fillColor=none;top=0;left=0;bottom=0;right=0;align=left;spacingLeft=6;overflow=hidden;whiteSpace=wrap;html=1;" parent="TTbelKC414xdq9f2QRjn-6" vertex="1">
                    <mxGeometry x="30" width="169.97000000000003" height="30" as="geometry">
                        <mxRectangle width="169.97000000000003" height="30" as="alternateBounds"/>
                    </mxGeometry>
                </mxCell>
                <mxCell id="TTbelKC414xdq9f2QRjn-1" value="" style="shape=tableRow;horizontal=0;startSize=0;swimlaneHead=0;swimlaneBody=0;fillColor=none;collapsible=0;dropTarget=0;points=[[0,0.5],[1,0.5]];portConstraint=eastwest;top=0;left=0;right=0;bottom=0;" parent="TN94Z9QFUKXi0vEHUw8P-23" vertex="1">
                    <mxGeometry y="240" width="199.97000000000003" height="30" as="geometry"/>
                </mxCell>
                <mxCell id="TTbelKC414xdq9f2QRjn-2" value="FK" style="shape=partialRectangle;connectable=0;fillColor=none;top=0;left=0;bottom=0;right=0;editable=1;overflow=hidden;whiteSpace=wrap;html=1;" parent="TTbelKC414xdq9f2QRjn-1" vertex="1">
                    <mxGeometry width="30" height="30" as="geometry">
                        <mxRectangle width="30" height="30" as="alternateBounds"/>
                    </mxGeometry>
                </mxCell>
                <mxCell id="TTbelKC414xdq9f2QRjn-3" value="companyId&lt;span style=&quot;background-color: initial;&quot;&gt;: int&lt;/span&gt;" style="shape=partialRectangle;connectable=0;fillColor=none;top=0;left=0;bottom=0;right=0;align=left;spacingLeft=6;overflow=hidden;whiteSpace=wrap;html=1;" parent="TTbelKC414xdq9f2QRjn-1" vertex="1">
                    <mxGeometry x="30" width="169.97000000000003" height="30" as="geometry">
                        <mxRectangle width="169.97000000000003" height="30" as="alternateBounds"/>
                    </mxGeometry>
                </mxCell>
                <mxCell id="TN94Z9QFUKXi0vEHUw8P-42" value="" style="shape=tableRow;horizontal=0;startSize=0;swimlaneHead=0;swimlaneBody=0;fillColor=none;collapsible=0;dropTarget=0;points=[[0,0.5],[1,0.5]];portConstraint=eastwest;top=0;left=0;right=0;bottom=0;" parent="TN94Z9QFUKXi0vEHUw8P-23" vertex="1">
                    <mxGeometry y="270" width="199.97000000000003" height="30" as="geometry"/>
                </mxCell>
                <mxCell id="TN94Z9QFUKXi0vEHUw8P-43" value="FK" style="shape=partialRectangle;connectable=0;fillColor=none;top=0;left=0;bottom=0;right=0;editable=1;overflow=hidden;whiteSpace=wrap;html=1;" parent="TN94Z9QFUKXi0vEHUw8P-42" vertex="1">
                    <mxGeometry width="30" height="30" as="geometry">
                        <mxRectangle width="30" height="30" as="alternateBounds"/>
                    </mxGeometry>
                </mxCell>
                <mxCell id="TN94Z9QFUKXi0vEHUw8P-44" value="addressId: int" style="shape=partialRectangle;connectable=0;fillColor=none;top=0;left=0;bottom=0;right=0;align=left;spacingLeft=6;overflow=hidden;whiteSpace=wrap;html=1;" parent="TN94Z9QFUKXi0vEHUw8P-42" vertex="1">
                    <mxGeometry x="30" width="169.97000000000003" height="30" as="geometry">
                        <mxRectangle width="169.97000000000003" height="30" as="alternateBounds"/>
                    </mxGeometry>
                </mxCell>
                <mxCell id="TN94Z9QFUKXi0vEHUw8P-45" value="" style="shape=tableRow;horizontal=0;startSize=0;swimlaneHead=0;swimlaneBody=0;fillColor=none;collapsible=0;dropTarget=0;points=[[0,0.5],[1,0.5]];portConstraint=eastwest;top=0;left=0;right=0;bottom=0;" parent="TN94Z9QFUKXi0vEHUw8P-23" vertex="1">
                    <mxGeometry y="300" width="199.97000000000003" height="30" as="geometry"/>
                </mxCell>
                <mxCell id="TN94Z9QFUKXi0vEHUw8P-46" value="FK" style="shape=partialRectangle;connectable=0;fillColor=none;top=0;left=0;bottom=0;right=0;editable=1;overflow=hidden;whiteSpace=wrap;html=1;" parent="TN94Z9QFUKXi0vEHUw8P-45" vertex="1">
                    <mxGeometry width="30" height="30" as="geometry">
                        <mxRectangle width="30" height="30" as="alternateBounds"/>
                    </mxGeometry>
                </mxCell>
                <mxCell id="TN94Z9QFUKXi0vEHUw8P-47" value="roleId: int" style="shape=partialRectangle;connectable=0;fillColor=none;top=0;left=0;bottom=0;right=0;align=left;spacingLeft=6;overflow=hidden;whiteSpace=wrap;html=1;" parent="TN94Z9QFUKXi0vEHUw8P-45" vertex="1">
                    <mxGeometry x="30" width="169.97000000000003" height="30" as="geometry">
                        <mxRectangle width="169.97000000000003" height="30" as="alternateBounds"/>
                    </mxGeometry>
                </mxCell>
                <mxCell id="TN94Z9QFUKXi0vEHUw8P-48" value="" style="shape=tableRow;horizontal=0;startSize=0;swimlaneHead=0;swimlaneBody=0;fillColor=none;collapsible=0;dropTarget=0;points=[[0,0.5],[1,0.5]];portConstraint=eastwest;top=0;left=0;right=0;bottom=0;" parent="TN94Z9QFUKXi0vEHUw8P-23" vertex="1">
                    <mxGeometry y="330" width="199.97000000000003" height="30" as="geometry"/>
                </mxCell>
                <mxCell id="TN94Z9QFUKXi0vEHUw8P-49" value="FK" style="shape=partialRectangle;connectable=0;fillColor=none;top=0;left=0;bottom=0;right=0;editable=1;overflow=hidden;whiteSpace=wrap;html=1;" parent="TN94Z9QFUKXi0vEHUw8P-48" vertex="1">
                    <mxGeometry width="30" height="30" as="geometry">
                        <mxRectangle width="30" height="30" as="alternateBounds"/>
                    </mxGeometry>
                </mxCell>
                <mxCell id="TN94Z9QFUKXi0vEHUw8P-50" value="photoId: int" style="shape=partialRectangle;connectable=0;fillColor=none;top=0;left=0;bottom=0;right=0;align=left;spacingLeft=6;overflow=hidden;whiteSpace=wrap;html=1;" parent="TN94Z9QFUKXi0vEHUw8P-48" vertex="1">
                    <mxGeometry x="30" width="169.97000000000003" height="30" as="geometry">
                        <mxRectangle width="169.97000000000003" height="30" as="alternateBounds"/>
                    </mxGeometry>
                </mxCell>
                <mxCell id="TN94Z9QFUKXi0vEHUw8P-51" value="Roles" style="shape=table;startSize=30;container=1;collapsible=1;childLayout=tableLayout;fixedRows=1;rowLines=0;fontStyle=1;align=center;resizeLast=1;html=1;" parent="1" vertex="1">
                    <mxGeometry x="320" y="560" width="199.97000000000003" height="90" as="geometry"/>
                </mxCell>
                <mxCell id="TN94Z9QFUKXi0vEHUw8P-52" value="" style="shape=tableRow;horizontal=0;startSize=0;swimlaneHead=0;swimlaneBody=0;fillColor=none;collapsible=0;dropTarget=0;points=[[0,0.5],[1,0.5]];portConstraint=eastwest;top=0;left=0;right=0;bottom=1;" parent="TN94Z9QFUKXi0vEHUw8P-51" vertex="1">
                    <mxGeometry y="30" width="199.97000000000003" height="30" as="geometry"/>
                </mxCell>
                <mxCell id="TN94Z9QFUKXi0vEHUw8P-53" value="PK" style="shape=partialRectangle;connectable=0;fillColor=none;top=0;left=0;bottom=0;right=0;fontStyle=1;overflow=hidden;whiteSpace=wrap;html=1;" parent="TN94Z9QFUKXi0vEHUw8P-52" vertex="1">
                    <mxGeometry width="30" height="30" as="geometry">
                        <mxRectangle width="30" height="30" as="alternateBounds"/>
                    </mxGeometry>
                </mxCell>
                <mxCell id="TN94Z9QFUKXi0vEHUw8P-54" value="UniqueID" style="shape=partialRectangle;connectable=0;fillColor=none;top=0;left=0;bottom=0;right=0;align=left;spacingLeft=6;fontStyle=5;overflow=hidden;whiteSpace=wrap;html=1;" parent="TN94Z9QFUKXi0vEHUw8P-52" vertex="1">
                    <mxGeometry x="30" width="169.97000000000003" height="30" as="geometry">
                        <mxRectangle width="169.97000000000003" height="30" as="alternateBounds"/>
                    </mxGeometry>
                </mxCell>
                <mxCell id="TN94Z9QFUKXi0vEHUw8P-55" value="" style="shape=tableRow;horizontal=0;startSize=0;swimlaneHead=0;swimlaneBody=0;fillColor=none;collapsible=0;dropTarget=0;points=[[0,0.5],[1,0.5]];portConstraint=eastwest;top=0;left=0;right=0;bottom=0;" parent="TN94Z9QFUKXi0vEHUw8P-51" vertex="1">
                    <mxGeometry y="60" width="199.97000000000003" height="30" as="geometry"/>
                </mxCell>
                <mxCell id="TN94Z9QFUKXi0vEHUw8P-56" value="" style="shape=partialRectangle;connectable=0;fillColor=none;top=0;left=0;bottom=0;right=0;editable=1;overflow=hidden;whiteSpace=wrap;html=1;" parent="TN94Z9QFUKXi0vEHUw8P-55" vertex="1">
                    <mxGeometry width="30" height="30" as="geometry">
                        <mxRectangle width="30" height="30" as="alternateBounds"/>
                    </mxGeometry>
                </mxCell>
                <mxCell id="TN94Z9QFUKXi0vEHUw8P-57" value="role: int" style="shape=partialRectangle;connectable=0;fillColor=none;top=0;left=0;bottom=0;right=0;align=left;spacingLeft=6;overflow=hidden;whiteSpace=wrap;html=1;" parent="TN94Z9QFUKXi0vEHUw8P-55" vertex="1">
                    <mxGeometry x="30" width="169.97000000000003" height="30" as="geometry">
                        <mxRectangle width="169.97000000000003" height="30" as="alternateBounds"/>
                    </mxGeometry>
                </mxCell>
                <mxCell id="TN94Z9QFUKXi0vEHUw8P-58" value="Address" style="shape=table;startSize=30;container=1;collapsible=1;childLayout=tableLayout;fixedRows=1;rowLines=0;fontStyle=1;align=center;resizeLast=1;html=1;" parent="1" vertex="1">
                    <mxGeometry x="640" y="480" width="199.97000000000003" height="240" as="geometry"/>
                </mxCell>
                <mxCell id="TN94Z9QFUKXi0vEHUw8P-59" value="" style="shape=tableRow;horizontal=0;startSize=0;swimlaneHead=0;swimlaneBody=0;fillColor=none;collapsible=0;dropTarget=0;points=[[0,0.5],[1,0.5]];portConstraint=eastwest;top=0;left=0;right=0;bottom=1;" parent="TN94Z9QFUKXi0vEHUw8P-58" vertex="1">
                    <mxGeometry y="30" width="199.97000000000003" height="30" as="geometry"/>
                </mxCell>
                <mxCell id="TN94Z9QFUKXi0vEHUw8P-60" value="PK" style="shape=partialRectangle;connectable=0;fillColor=none;top=0;left=0;bottom=0;right=0;fontStyle=1;overflow=hidden;whiteSpace=wrap;html=1;" parent="TN94Z9QFUKXi0vEHUw8P-59" vertex="1">
                    <mxGeometry width="30" height="30" as="geometry">
                        <mxRectangle width="30" height="30" as="alternateBounds"/>
                    </mxGeometry>
                </mxCell>
                <mxCell id="TN94Z9QFUKXi0vEHUw8P-61" value="UniqueID" style="shape=partialRectangle;connectable=0;fillColor=none;top=0;left=0;bottom=0;right=0;align=left;spacingLeft=6;fontStyle=5;overflow=hidden;whiteSpace=wrap;html=1;" parent="TN94Z9QFUKXi0vEHUw8P-59" vertex="1">
                    <mxGeometry x="30" width="169.97000000000003" height="30" as="geometry">
                        <mxRectangle width="169.97000000000003" height="30" as="alternateBounds"/>
                    </mxGeometry>
                </mxCell>
                <mxCell id="TN94Z9QFUKXi0vEHUw8P-62" value="" style="shape=tableRow;horizontal=0;startSize=0;swimlaneHead=0;swimlaneBody=0;fillColor=none;collapsible=0;dropTarget=0;points=[[0,0.5],[1,0.5]];portConstraint=eastwest;top=0;left=0;right=0;bottom=0;" parent="TN94Z9QFUKXi0vEHUw8P-58" vertex="1">
                    <mxGeometry y="60" width="199.97000000000003" height="30" as="geometry"/>
                </mxCell>
                <mxCell id="TN94Z9QFUKXi0vEHUw8P-63" value="" style="shape=partialRectangle;connectable=0;fillColor=none;top=0;left=0;bottom=0;right=0;editable=1;overflow=hidden;whiteSpace=wrap;html=1;" parent="TN94Z9QFUKXi0vEHUw8P-62" vertex="1">
                    <mxGeometry width="30" height="30" as="geometry">
                        <mxRectangle width="30" height="30" as="alternateBounds"/>
                    </mxGeometry>
                </mxCell>
                <mxCell id="TN94Z9QFUKXi0vEHUw8P-64" value="cep: varchar(8)" style="shape=partialRectangle;connectable=0;fillColor=none;top=0;left=0;bottom=0;right=0;align=left;spacingLeft=6;overflow=hidden;whiteSpace=wrap;html=1;" parent="TN94Z9QFUKXi0vEHUw8P-62" vertex="1">
                    <mxGeometry x="30" width="169.97000000000003" height="30" as="geometry">
                        <mxRectangle width="169.97000000000003" height="30" as="alternateBounds"/>
                    </mxGeometry>
                </mxCell>
                <mxCell id="TN94Z9QFUKXi0vEHUw8P-65" value="" style="shape=tableRow;horizontal=0;startSize=0;swimlaneHead=0;swimlaneBody=0;fillColor=none;collapsible=0;dropTarget=0;points=[[0,0.5],[1,0.5]];portConstraint=eastwest;top=0;left=0;right=0;bottom=0;" parent="TN94Z9QFUKXi0vEHUw8P-58" vertex="1">
                    <mxGeometry y="90" width="199.97000000000003" height="30" as="geometry"/>
                </mxCell>
                <mxCell id="TN94Z9QFUKXi0vEHUw8P-66" value="" style="shape=partialRectangle;connectable=0;fillColor=none;top=0;left=0;bottom=0;right=0;editable=1;overflow=hidden;whiteSpace=wrap;html=1;" parent="TN94Z9QFUKXi0vEHUw8P-65" vertex="1">
                    <mxGeometry width="30" height="30" as="geometry">
                        <mxRectangle width="30" height="30" as="alternateBounds"/>
                    </mxGeometry>
                </mxCell>
                <mxCell id="TN94Z9QFUKXi0vEHUw8P-67" value="street&lt;span style=&quot;background-color: initial;&quot;&gt;: varchar(255)&lt;/span&gt;" style="shape=partialRectangle;connectable=0;fillColor=none;top=0;left=0;bottom=0;right=0;align=left;spacingLeft=6;overflow=hidden;whiteSpace=wrap;html=1;" parent="TN94Z9QFUKXi0vEHUw8P-65" vertex="1">
                    <mxGeometry x="30" width="169.97000000000003" height="30" as="geometry">
                        <mxRectangle width="169.97000000000003" height="30" as="alternateBounds"/>
                    </mxGeometry>
                </mxCell>
                <mxCell id="TN94Z9QFUKXi0vEHUw8P-68" value="" style="shape=tableRow;horizontal=0;startSize=0;swimlaneHead=0;swimlaneBody=0;fillColor=none;collapsible=0;dropTarget=0;points=[[0,0.5],[1,0.5]];portConstraint=eastwest;top=0;left=0;right=0;bottom=0;" parent="TN94Z9QFUKXi0vEHUw8P-58" vertex="1">
                    <mxGeometry y="120" width="199.97000000000003" height="30" as="geometry"/>
                </mxCell>
                <mxCell id="TN94Z9QFUKXi0vEHUw8P-69" value="" style="shape=partialRectangle;connectable=0;fillColor=none;top=0;left=0;bottom=0;right=0;editable=1;overflow=hidden;whiteSpace=wrap;html=1;" parent="TN94Z9QFUKXi0vEHUw8P-68" vertex="1">
                    <mxGeometry width="30" height="30" as="geometry">
                        <mxRectangle width="30" height="30" as="alternateBounds"/>
                    </mxGeometry>
                </mxCell>
                <mxCell id="TN94Z9QFUKXi0vEHUw8P-70" value="number: int" style="shape=partialRectangle;connectable=0;fillColor=none;top=0;left=0;bottom=0;right=0;align=left;spacingLeft=6;overflow=hidden;whiteSpace=wrap;html=1;" parent="TN94Z9QFUKXi0vEHUw8P-68" vertex="1">
                    <mxGeometry x="30" width="169.97000000000003" height="30" as="geometry">
                        <mxRectangle width="169.97000000000003" height="30" as="alternateBounds"/>
                    </mxGeometry>
                </mxCell>
                <mxCell id="TN94Z9QFUKXi0vEHUw8P-71" value="" style="shape=tableRow;horizontal=0;startSize=0;swimlaneHead=0;swimlaneBody=0;fillColor=none;collapsible=0;dropTarget=0;points=[[0,0.5],[1,0.5]];portConstraint=eastwest;top=0;left=0;right=0;bottom=0;" parent="TN94Z9QFUKXi0vEHUw8P-58" vertex="1">
                    <mxGeometry y="150" width="199.97000000000003" height="30" as="geometry"/>
                </mxCell>
                <mxCell id="TN94Z9QFUKXi0vEHUw8P-72" value="" style="shape=partialRectangle;connectable=0;fillColor=none;top=0;left=0;bottom=0;right=0;editable=1;overflow=hidden;whiteSpace=wrap;html=1;" parent="TN94Z9QFUKXi0vEHUw8P-71" vertex="1">
                    <mxGeometry width="30" height="30" as="geometry">
                        <mxRectangle width="30" height="30" as="alternateBounds"/>
                    </mxGeometry>
                </mxCell>
                <mxCell id="TN94Z9QFUKXi0vEHUw8P-73" value="c&lt;span style=&quot;background-color: initial;&quot;&gt;ity: varchar(255)&lt;/span&gt;" style="shape=partialRectangle;connectable=0;fillColor=none;top=0;left=0;bottom=0;right=0;align=left;spacingLeft=6;overflow=hidden;whiteSpace=wrap;html=1;" parent="TN94Z9QFUKXi0vEHUw8P-71" vertex="1">
                    <mxGeometry x="30" width="169.97000000000003" height="30" as="geometry">
                        <mxRectangle width="169.97000000000003" height="30" as="alternateBounds"/>
                    </mxGeometry>
                </mxCell>
                <mxCell id="TN94Z9QFUKXi0vEHUw8P-74" value="" style="shape=tableRow;horizontal=0;startSize=0;swimlaneHead=0;swimlaneBody=0;fillColor=none;collapsible=0;dropTarget=0;points=[[0,0.5],[1,0.5]];portConstraint=eastwest;top=0;left=0;right=0;bottom=0;" parent="TN94Z9QFUKXi0vEHUw8P-58" vertex="1">
                    <mxGeometry y="180" width="199.97000000000003" height="30" as="geometry"/>
                </mxCell>
                <mxCell id="TN94Z9QFUKXi0vEHUw8P-75" value="" style="shape=partialRectangle;connectable=0;fillColor=none;top=0;left=0;bottom=0;right=0;editable=1;overflow=hidden;whiteSpace=wrap;html=1;" parent="TN94Z9QFUKXi0vEHUw8P-74" vertex="1">
                    <mxGeometry width="30" height="30" as="geometry">
                        <mxRectangle width="30" height="30" as="alternateBounds"/>
                    </mxGeometry>
                </mxCell>
                <mxCell id="TN94Z9QFUKXi0vEHUw8P-76" value="state: varchar(255)" style="shape=partialRectangle;connectable=0;fillColor=none;top=0;left=0;bottom=0;right=0;align=left;spacingLeft=6;overflow=hidden;whiteSpace=wrap;html=1;" parent="TN94Z9QFUKXi0vEHUw8P-74" vertex="1">
                    <mxGeometry x="30" width="169.97000000000003" height="30" as="geometry">
                        <mxRectangle width="169.97000000000003" height="30" as="alternateBounds"/>
                    </mxGeometry>
                </mxCell>
                <mxCell id="TN94Z9QFUKXi0vEHUw8P-77" value="" style="shape=tableRow;horizontal=0;startSize=0;swimlaneHead=0;swimlaneBody=0;fillColor=none;collapsible=0;dropTarget=0;points=[[0,0.5],[1,0.5]];portConstraint=eastwest;top=0;left=0;right=0;bottom=0;" parent="TN94Z9QFUKXi0vEHUw8P-58" vertex="1">
                    <mxGeometry y="210" width="199.97000000000003" height="30" as="geometry"/>
                </mxCell>
                <mxCell id="TN94Z9QFUKXi0vEHUw8P-78" value="" style="shape=partialRectangle;connectable=0;fillColor=none;top=0;left=0;bottom=0;right=0;editable=1;overflow=hidden;whiteSpace=wrap;html=1;" parent="TN94Z9QFUKXi0vEHUw8P-77" vertex="1">
                    <mxGeometry width="30" height="30" as="geometry">
                        <mxRectangle width="30" height="30" as="alternateBounds"/>
                    </mxGeometry>
                </mxCell>
                <mxCell id="TN94Z9QFUKXi0vEHUw8P-79" value="country: varchar(255)" style="shape=partialRectangle;connectable=0;fillColor=none;top=0;left=0;bottom=0;right=0;align=left;spacingLeft=6;overflow=hidden;whiteSpace=wrap;html=1;" parent="TN94Z9QFUKXi0vEHUw8P-77" vertex="1">
                    <mxGeometry x="30" width="169.97000000000003" height="30" as="geometry">
                        <mxRectangle width="169.97000000000003" height="30" as="alternateBounds"/>
                    </mxGeometry>
                </mxCell>
                <mxCell id="TN94Z9QFUKXi0vEHUw8P-80" value="Vehicle" style="shape=table;startSize=30;container=1;collapsible=1;childLayout=tableLayout;fixedRows=1;rowLines=0;fontStyle=1;align=center;resizeLast=1;html=1;" parent="1" vertex="1">
                    <mxGeometry x="39.99999999999997" y="200" width="200" height="240" as="geometry"/>
                </mxCell>
                <mxCell id="TN94Z9QFUKXi0vEHUw8P-81" value="" style="shape=tableRow;horizontal=0;startSize=0;swimlaneHead=0;swimlaneBody=0;fillColor=none;collapsible=0;dropTarget=0;points=[[0,0.5],[1,0.5]];portConstraint=eastwest;top=0;left=0;right=0;bottom=1;" parent="TN94Z9QFUKXi0vEHUw8P-80" vertex="1">
                    <mxGeometry y="30" width="200" height="30" as="geometry"/>
                </mxCell>
                <mxCell id="TN94Z9QFUKXi0vEHUw8P-82" value="PK" style="shape=partialRectangle;connectable=0;fillColor=none;top=0;left=0;bottom=0;right=0;fontStyle=1;overflow=hidden;whiteSpace=wrap;html=1;" parent="TN94Z9QFUKXi0vEHUw8P-81" vertex="1">
                    <mxGeometry width="30" height="30" as="geometry">
                        <mxRectangle width="30" height="30" as="alternateBounds"/>
                    </mxGeometry>
                </mxCell>
                <mxCell id="TN94Z9QFUKXi0vEHUw8P-83" value="UniqueID" style="shape=partialRectangle;connectable=0;fillColor=none;top=0;left=0;bottom=0;right=0;align=left;spacingLeft=6;fontStyle=5;overflow=hidden;whiteSpace=wrap;html=1;" parent="TN94Z9QFUKXi0vEHUw8P-81" vertex="1">
                    <mxGeometry x="30" width="170" height="30" as="geometry">
                        <mxRectangle width="170" height="30" as="alternateBounds"/>
                    </mxGeometry>
                </mxCell>
                <mxCell id="TN94Z9QFUKXi0vEHUw8P-84" value="" style="shape=tableRow;horizontal=0;startSize=0;swimlaneHead=0;swimlaneBody=0;fillColor=none;collapsible=0;dropTarget=0;points=[[0,0.5],[1,0.5]];portConstraint=eastwest;top=0;left=0;right=0;bottom=0;" parent="TN94Z9QFUKXi0vEHUw8P-80" vertex="1">
                    <mxGeometry y="60" width="200" height="30" as="geometry"/>
                </mxCell>
                <mxCell id="TN94Z9QFUKXi0vEHUw8P-85" value="" style="shape=partialRectangle;connectable=0;fillColor=none;top=0;left=0;bottom=0;right=0;editable=1;overflow=hidden;whiteSpace=wrap;html=1;" parent="TN94Z9QFUKXi0vEHUw8P-84" vertex="1">
                    <mxGeometry width="30" height="30" as="geometry">
                        <mxRectangle width="30" height="30" as="alternateBounds"/>
                    </mxGeometry>
                </mxCell>
                <mxCell id="TN94Z9QFUKXi0vEHUw8P-86" value="brand: varchar(255)" style="shape=partialRectangle;connectable=0;fillColor=none;top=0;left=0;bottom=0;right=0;align=left;spacingLeft=6;overflow=hidden;whiteSpace=wrap;html=1;" parent="TN94Z9QFUKXi0vEHUw8P-84" vertex="1">
                    <mxGeometry x="30" width="170" height="30" as="geometry">
                        <mxRectangle width="170" height="30" as="alternateBounds"/>
                    </mxGeometry>
                </mxCell>
                <mxCell id="TN94Z9QFUKXi0vEHUw8P-87" value="" style="shape=tableRow;horizontal=0;startSize=0;swimlaneHead=0;swimlaneBody=0;fillColor=none;collapsible=0;dropTarget=0;points=[[0,0.5],[1,0.5]];portConstraint=eastwest;top=0;left=0;right=0;bottom=0;" parent="TN94Z9QFUKXi0vEHUw8P-80" vertex="1">
                    <mxGeometry y="90" width="200" height="30" as="geometry"/>
                </mxCell>
                <mxCell id="TN94Z9QFUKXi0vEHUw8P-88" value="" style="shape=partialRectangle;connectable=0;fillColor=none;top=0;left=0;bottom=0;right=0;editable=1;overflow=hidden;whiteSpace=wrap;html=1;" parent="TN94Z9QFUKXi0vEHUw8P-87" vertex="1">
                    <mxGeometry width="30" height="30" as="geometry">
                        <mxRectangle width="30" height="30" as="alternateBounds"/>
                    </mxGeometry>
                </mxCell>
                <mxCell id="TN94Z9QFUKXi0vEHUw8P-89" value="model: varchar(255)" style="shape=partialRectangle;connectable=0;fillColor=none;top=0;left=0;bottom=0;right=0;align=left;spacingLeft=6;overflow=hidden;whiteSpace=wrap;html=1;" parent="TN94Z9QFUKXi0vEHUw8P-87" vertex="1">
                    <mxGeometry x="30" width="170" height="30" as="geometry">
                        <mxRectangle width="170" height="30" as="alternateBounds"/>
                    </mxGeometry>
                </mxCell>
                <mxCell id="TN94Z9QFUKXi0vEHUw8P-90" value="" style="shape=tableRow;horizontal=0;startSize=0;swimlaneHead=0;swimlaneBody=0;fillColor=none;collapsible=0;dropTarget=0;points=[[0,0.5],[1,0.5]];portConstraint=eastwest;top=0;left=0;right=0;bottom=0;" parent="TN94Z9QFUKXi0vEHUw8P-80" vertex="1">
                    <mxGeometry y="120" width="200" height="30" as="geometry"/>
                </mxCell>
                <mxCell id="TN94Z9QFUKXi0vEHUw8P-91" value="" style="shape=partialRectangle;connectable=0;fillColor=none;top=0;left=0;bottom=0;right=0;editable=1;overflow=hidden;whiteSpace=wrap;html=1;" parent="TN94Z9QFUKXi0vEHUw8P-90" vertex="1">
                    <mxGeometry width="30" height="30" as="geometry">
                        <mxRectangle width="30" height="30" as="alternateBounds"/>
                    </mxGeometry>
                </mxCell>
                <mxCell id="TN94Z9QFUKXi0vEHUw8P-92" value="year: int" style="shape=partialRectangle;connectable=0;fillColor=none;top=0;left=0;bottom=0;right=0;align=left;spacingLeft=6;overflow=hidden;whiteSpace=wrap;html=1;" parent="TN94Z9QFUKXi0vEHUw8P-90" vertex="1">
                    <mxGeometry x="30" width="170" height="30" as="geometry">
                        <mxRectangle width="170" height="30" as="alternateBounds"/>
                    </mxGeometry>
                </mxCell>
                <mxCell id="TN94Z9QFUKXi0vEHUw8P-93" value="" style="shape=tableRow;horizontal=0;startSize=0;swimlaneHead=0;swimlaneBody=0;fillColor=none;collapsible=0;dropTarget=0;points=[[0,0.5],[1,0.5]];portConstraint=eastwest;top=0;left=0;right=0;bottom=0;" parent="TN94Z9QFUKXi0vEHUw8P-80" vertex="1">
                    <mxGeometry y="150" width="200" height="30" as="geometry"/>
                </mxCell>
                <mxCell id="TN94Z9QFUKXi0vEHUw8P-94" value="" style="shape=partialRectangle;connectable=0;fillColor=none;top=0;left=0;bottom=0;right=0;editable=1;overflow=hidden;whiteSpace=wrap;html=1;" parent="TN94Z9QFUKXi0vEHUw8P-93" vertex="1">
                    <mxGeometry width="30" height="30" as="geometry">
                        <mxRectangle width="30" height="30" as="alternateBounds"/>
                    </mxGeometry>
                </mxCell>
                <mxCell id="TN94Z9QFUKXi0vEHUw8P-95" value="Color: Varchar(255)" style="shape=partialRectangle;connectable=0;fillColor=none;top=0;left=0;bottom=0;right=0;align=left;spacingLeft=6;overflow=hidden;whiteSpace=wrap;html=1;" parent="TN94Z9QFUKXi0vEHUw8P-93" vertex="1">
                    <mxGeometry x="30" width="170" height="30" as="geometry">
                        <mxRectangle width="170" height="30" as="alternateBounds"/>
                    </mxGeometry>
                </mxCell>
                <mxCell id="TN94Z9QFUKXi0vEHUw8P-96" value="" style="shape=tableRow;horizontal=0;startSize=0;swimlaneHead=0;swimlaneBody=0;fillColor=none;collapsible=0;dropTarget=0;points=[[0,0.5],[1,0.5]];portConstraint=eastwest;top=0;left=0;right=0;bottom=0;" parent="TN94Z9QFUKXi0vEHUw8P-80" vertex="1">
                    <mxGeometry y="180" width="200" height="30" as="geometry"/>
                </mxCell>
                <mxCell id="TN94Z9QFUKXi0vEHUw8P-97" value="FK" style="shape=partialRectangle;connectable=0;fillColor=none;top=0;left=0;bottom=0;right=0;editable=1;overflow=hidden;whiteSpace=wrap;html=1;" parent="TN94Z9QFUKXi0vEHUw8P-96" vertex="1">
                    <mxGeometry width="30" height="30" as="geometry">
                        <mxRectangle width="30" height="30" as="alternateBounds"/>
                    </mxGeometry>
                </mxCell>
                <mxCell id="TN94Z9QFUKXi0vEHUw8P-98" value="userId: int" style="shape=partialRectangle;connectable=0;fillColor=none;top=0;left=0;bottom=0;right=0;align=left;spacingLeft=6;overflow=hidden;whiteSpace=wrap;html=1;" parent="TN94Z9QFUKXi0vEHUw8P-96" vertex="1">
                    <mxGeometry x="30" width="170" height="30" as="geometry">
                        <mxRectangle width="170" height="30" as="alternateBounds"/>
                    </mxGeometry>
                </mxCell>
                <mxCell id="TN94Z9QFUKXi0vEHUw8P-99" value="" style="shape=tableRow;horizontal=0;startSize=0;swimlaneHead=0;swimlaneBody=0;fillColor=none;collapsible=0;dropTarget=0;points=[[0,0.5],[1,0.5]];portConstraint=eastwest;top=0;left=0;right=0;bottom=0;" parent="TN94Z9QFUKXi0vEHUw8P-80" vertex="1">
                    <mxGeometry y="210" width="200" height="30" as="geometry"/>
                </mxCell>
                <mxCell id="TN94Z9QFUKXi0vEHUw8P-100" value="FK" style="shape=partialRectangle;connectable=0;fillColor=none;top=0;left=0;bottom=0;right=0;editable=1;overflow=hidden;whiteSpace=wrap;html=1;" parent="TN94Z9QFUKXi0vEHUw8P-99" vertex="1">
                    <mxGeometry width="30" height="30" as="geometry">
                        <mxRectangle width="30" height="30" as="alternateBounds"/>
                    </mxGeometry>
                </mxCell>
                <mxCell id="TN94Z9QFUKXi0vEHUw8P-101" value="photoId: int" style="shape=partialRectangle;connectable=0;fillColor=none;top=0;left=0;bottom=0;right=0;align=left;spacingLeft=6;overflow=hidden;whiteSpace=wrap;html=1;" parent="TN94Z9QFUKXi0vEHUw8P-99" vertex="1">
                    <mxGeometry x="30" width="170" height="30" as="geometry">
                        <mxRectangle width="170" height="30" as="alternateBounds"/>
                    </mxGeometry>
                </mxCell>
                <mxCell id="TN94Z9QFUKXi0vEHUw8P-102" value="Plan" style="shape=table;startSize=30;container=1;collapsible=1;childLayout=tableLayout;fixedRows=1;rowLines=0;fontStyle=1;align=center;resizeLast=1;html=1;" parent="1" vertex="1">
                    <mxGeometry x="920" y="200" width="199.97000000000025" height="180" as="geometry"/>
                </mxCell>
                <mxCell id="TN94Z9QFUKXi0vEHUw8P-103" value="" style="shape=tableRow;horizontal=0;startSize=0;swimlaneHead=0;swimlaneBody=0;fillColor=none;collapsible=0;dropTarget=0;points=[[0,0.5],[1,0.5]];portConstraint=eastwest;top=0;left=0;right=0;bottom=1;" parent="TN94Z9QFUKXi0vEHUw8P-102" vertex="1">
                    <mxGeometry y="30" width="199.97000000000025" height="30" as="geometry"/>
                </mxCell>
                <mxCell id="TN94Z9QFUKXi0vEHUw8P-104" value="PK" style="shape=partialRectangle;connectable=0;fillColor=none;top=0;left=0;bottom=0;right=0;fontStyle=1;overflow=hidden;whiteSpace=wrap;html=1;" parent="TN94Z9QFUKXi0vEHUw8P-103" vertex="1">
                    <mxGeometry width="30" height="30" as="geometry">
                        <mxRectangle width="30" height="30" as="alternateBounds"/>
                    </mxGeometry>
                </mxCell>
                <mxCell id="TN94Z9QFUKXi0vEHUw8P-105" value="UniqueID" style="shape=partialRectangle;connectable=0;fillColor=none;top=0;left=0;bottom=0;right=0;align=left;spacingLeft=6;fontStyle=5;overflow=hidden;whiteSpace=wrap;html=1;" parent="TN94Z9QFUKXi0vEHUw8P-103" vertex="1">
                    <mxGeometry x="30" width="169.97000000000025" height="30" as="geometry">
                        <mxRectangle width="169.97000000000025" height="30" as="alternateBounds"/>
                    </mxGeometry>
                </mxCell>
                <mxCell id="TN94Z9QFUKXi0vEHUw8P-106" value="" style="shape=tableRow;horizontal=0;startSize=0;swimlaneHead=0;swimlaneBody=0;fillColor=none;collapsible=0;dropTarget=0;points=[[0,0.5],[1,0.5]];portConstraint=eastwest;top=0;left=0;right=0;bottom=0;" parent="TN94Z9QFUKXi0vEHUw8P-102" vertex="1">
                    <mxGeometry y="60" width="199.97000000000025" height="30" as="geometry"/>
                </mxCell>
                <mxCell id="TN94Z9QFUKXi0vEHUw8P-107" value="" style="shape=partialRectangle;connectable=0;fillColor=none;top=0;left=0;bottom=0;right=0;editable=1;overflow=hidden;whiteSpace=wrap;html=1;" parent="TN94Z9QFUKXi0vEHUw8P-106" vertex="1">
                    <mxGeometry width="30" height="30" as="geometry">
                        <mxRectangle width="30" height="30" as="alternateBounds"/>
                    </mxGeometry>
                </mxCell>
                <mxCell id="TN94Z9QFUKXi0vEHUw8P-108" value="plan: int" style="shape=partialRectangle;connectable=0;fillColor=none;top=0;left=0;bottom=0;right=0;align=left;spacingLeft=6;overflow=hidden;whiteSpace=wrap;html=1;" parent="TN94Z9QFUKXi0vEHUw8P-106" vertex="1">
                    <mxGeometry x="30" width="169.97000000000025" height="30" as="geometry">
                        <mxRectangle width="169.97000000000025" height="30" as="alternateBounds"/>
                    </mxGeometry>
                </mxCell>
                <mxCell id="TN94Z9QFUKXi0vEHUw8P-109" value="" style="shape=tableRow;horizontal=0;startSize=0;swimlaneHead=0;swimlaneBody=0;fillColor=none;collapsible=0;dropTarget=0;points=[[0,0.5],[1,0.5]];portConstraint=eastwest;top=0;left=0;right=0;bottom=0;" parent="TN94Z9QFUKXi0vEHUw8P-102" vertex="1">
                    <mxGeometry y="90" width="199.97000000000025" height="30" as="geometry"/>
                </mxCell>
                <mxCell id="TN94Z9QFUKXi0vEHUw8P-110" value="" style="shape=partialRectangle;connectable=0;fillColor=none;top=0;left=0;bottom=0;right=0;editable=1;overflow=hidden;whiteSpace=wrap;html=1;" parent="TN94Z9QFUKXi0vEHUw8P-109" vertex="1">
                    <mxGeometry width="30" height="30" as="geometry">
                        <mxRectangle width="30" height="30" as="alternateBounds"/>
                    </mxGeometry>
                </mxCell>
                <mxCell id="TN94Z9QFUKXi0vEHUw8P-111" value="title: varchar(255)" style="shape=partialRectangle;connectable=0;fillColor=none;top=0;left=0;bottom=0;right=0;align=left;spacingLeft=6;overflow=hidden;whiteSpace=wrap;html=1;" parent="TN94Z9QFUKXi0vEHUw8P-109" vertex="1">
                    <mxGeometry x="30" width="169.97000000000025" height="30" as="geometry">
                        <mxRectangle width="169.97000000000025" height="30" as="alternateBounds"/>
                    </mxGeometry>
                </mxCell>
                <mxCell id="TN94Z9QFUKXi0vEHUw8P-112" value="" style="shape=tableRow;horizontal=0;startSize=0;swimlaneHead=0;swimlaneBody=0;fillColor=none;collapsible=0;dropTarget=0;points=[[0,0.5],[1,0.5]];portConstraint=eastwest;top=0;left=0;right=0;bottom=0;" parent="TN94Z9QFUKXi0vEHUw8P-102" vertex="1">
                    <mxGeometry y="120" width="199.97000000000025" height="30" as="geometry"/>
                </mxCell>
                <mxCell id="TN94Z9QFUKXi0vEHUw8P-113" value="" style="shape=partialRectangle;connectable=0;fillColor=none;top=0;left=0;bottom=0;right=0;editable=1;overflow=hidden;whiteSpace=wrap;html=1;" parent="TN94Z9QFUKXi0vEHUw8P-112" vertex="1">
                    <mxGeometry width="30" height="30" as="geometry">
                        <mxRectangle width="30" height="30" as="alternateBounds"/>
                    </mxGeometry>
                </mxCell>
                <mxCell id="TN94Z9QFUKXi0vEHUw8P-114" value="description: varchar(255)" style="shape=partialRectangle;connectable=0;fillColor=none;top=0;left=0;bottom=0;right=0;align=left;spacingLeft=6;overflow=hidden;whiteSpace=wrap;html=1;" parent="TN94Z9QFUKXi0vEHUw8P-112" vertex="1">
                    <mxGeometry x="30" width="169.97000000000025" height="30" as="geometry">
                        <mxRectangle width="169.97000000000025" height="30" as="alternateBounds"/>
                    </mxGeometry>
                </mxCell>
                <mxCell id="TN94Z9QFUKXi0vEHUw8P-115" value="" style="shape=tableRow;horizontal=0;startSize=0;swimlaneHead=0;swimlaneBody=0;fillColor=none;collapsible=0;dropTarget=0;points=[[0,0.5],[1,0.5]];portConstraint=eastwest;top=0;left=0;right=0;bottom=0;" parent="TN94Z9QFUKXi0vEHUw8P-102" vertex="1">
                    <mxGeometry y="150" width="199.97000000000025" height="30" as="geometry"/>
                </mxCell>
                <mxCell id="TN94Z9QFUKXi0vEHUw8P-116" value="" style="shape=partialRectangle;connectable=0;fillColor=none;top=0;left=0;bottom=0;right=0;editable=1;overflow=hidden;whiteSpace=wrap;html=1;" parent="TN94Z9QFUKXi0vEHUw8P-115" vertex="1">
                    <mxGeometry width="30" height="30" as="geometry">
                        <mxRectangle width="30" height="30" as="alternateBounds"/>
                    </mxGeometry>
                </mxCell>
                <mxCell id="TN94Z9QFUKXi0vEHUw8P-117" value="price: double" style="shape=partialRectangle;connectable=0;fillColor=none;top=0;left=0;bottom=0;right=0;align=left;spacingLeft=6;overflow=hidden;whiteSpace=wrap;html=1;" parent="TN94Z9QFUKXi0vEHUw8P-115" vertex="1">
                    <mxGeometry x="30" width="169.97000000000025" height="30" as="geometry">
                        <mxRectangle width="169.97000000000025" height="30" as="alternateBounds"/>
                    </mxGeometry>
                </mxCell>
                <mxCell id="TN94Z9QFUKXi0vEHUw8P-120" value="CarAccessLog" style="shape=table;startSize=30;container=1;collapsible=1;childLayout=tableLayout;fixedRows=1;rowLines=0;fontStyle=1;align=center;resizeLast=1;html=1;" parent="1" vertex="1">
                    <mxGeometry x="40" y="480" width="200" height="150" as="geometry"/>
                </mxCell>
                <mxCell id="TN94Z9QFUKXi0vEHUw8P-121" value="" style="shape=tableRow;horizontal=0;startSize=0;swimlaneHead=0;swimlaneBody=0;fillColor=none;collapsible=0;dropTarget=0;points=[[0,0.5],[1,0.5]];portConstraint=eastwest;top=0;left=0;right=0;bottom=1;" parent="TN94Z9QFUKXi0vEHUw8P-120" vertex="1">
                    <mxGeometry y="30" width="200" height="30" as="geometry"/>
                </mxCell>
                <mxCell id="TN94Z9QFUKXi0vEHUw8P-122" value="PK" style="shape=partialRectangle;connectable=0;fillColor=none;top=0;left=0;bottom=0;right=0;fontStyle=1;overflow=hidden;whiteSpace=wrap;html=1;" parent="TN94Z9QFUKXi0vEHUw8P-121" vertex="1">
                    <mxGeometry width="30" height="30" as="geometry">
                        <mxRectangle width="30" height="30" as="alternateBounds"/>
                    </mxGeometry>
                </mxCell>
                <mxCell id="TN94Z9QFUKXi0vEHUw8P-123" value="UniqueID" style="shape=partialRectangle;connectable=0;fillColor=none;top=0;left=0;bottom=0;right=0;align=left;spacingLeft=6;fontStyle=5;overflow=hidden;whiteSpace=wrap;html=1;" parent="TN94Z9QFUKXi0vEHUw8P-121" vertex="1">
                    <mxGeometry x="30" width="170" height="30" as="geometry">
                        <mxRectangle width="170" height="30" as="alternateBounds"/>
                    </mxGeometry>
                </mxCell>
                <mxCell id="TN94Z9QFUKXi0vEHUw8P-124" value="" style="shape=tableRow;horizontal=0;startSize=0;swimlaneHead=0;swimlaneBody=0;fillColor=none;collapsible=0;dropTarget=0;points=[[0,0.5],[1,0.5]];portConstraint=eastwest;top=0;left=0;right=0;bottom=0;" parent="TN94Z9QFUKXi0vEHUw8P-120" vertex="1">
                    <mxGeometry y="60" width="200" height="30" as="geometry"/>
                </mxCell>
                <mxCell id="TN94Z9QFUKXi0vEHUw8P-125" value="" style="shape=partialRectangle;connectable=0;fillColor=none;top=0;left=0;bottom=0;right=0;editable=1;overflow=hidden;whiteSpace=wrap;html=1;" parent="TN94Z9QFUKXi0vEHUw8P-124" vertex="1">
                    <mxGeometry width="30" height="30" as="geometry">
                        <mxRectangle width="30" height="30" as="alternateBounds"/>
                    </mxGeometry>
                </mxCell>
                <mxCell id="TN94Z9QFUKXi0vEHUw8P-126" value="in: Date" style="shape=partialRectangle;connectable=0;fillColor=none;top=0;left=0;bottom=0;right=0;align=left;spacingLeft=6;overflow=hidden;whiteSpace=wrap;html=1;" parent="TN94Z9QFUKXi0vEHUw8P-124" vertex="1">
                    <mxGeometry x="30" width="170" height="30" as="geometry">
                        <mxRectangle width="170" height="30" as="alternateBounds"/>
                    </mxGeometry>
                </mxCell>
                <mxCell id="TN94Z9QFUKXi0vEHUw8P-127" value="" style="shape=tableRow;horizontal=0;startSize=0;swimlaneHead=0;swimlaneBody=0;fillColor=none;collapsible=0;dropTarget=0;points=[[0,0.5],[1,0.5]];portConstraint=eastwest;top=0;left=0;right=0;bottom=0;" parent="TN94Z9QFUKXi0vEHUw8P-120" vertex="1">
                    <mxGeometry y="90" width="200" height="30" as="geometry"/>
                </mxCell>
                <mxCell id="TN94Z9QFUKXi0vEHUw8P-128" value="" style="shape=partialRectangle;connectable=0;fillColor=none;top=0;left=0;bottom=0;right=0;editable=1;overflow=hidden;whiteSpace=wrap;html=1;" parent="TN94Z9QFUKXi0vEHUw8P-127" vertex="1">
                    <mxGeometry width="30" height="30" as="geometry">
                        <mxRectangle width="30" height="30" as="alternateBounds"/>
                    </mxGeometry>
                </mxCell>
                <mxCell id="TN94Z9QFUKXi0vEHUw8P-129" value="out: Date" style="shape=partialRectangle;connectable=0;fillColor=none;top=0;left=0;bottom=0;right=0;align=left;spacingLeft=6;overflow=hidden;whiteSpace=wrap;html=1;" parent="TN94Z9QFUKXi0vEHUw8P-127" vertex="1">
                    <mxGeometry x="30" width="170" height="30" as="geometry">
                        <mxRectangle width="170" height="30" as="alternateBounds"/>
                    </mxGeometry>
                </mxCell>
                <mxCell id="TN94Z9QFUKXi0vEHUw8P-130" value="" style="shape=tableRow;horizontal=0;startSize=0;swimlaneHead=0;swimlaneBody=0;fillColor=none;collapsible=0;dropTarget=0;points=[[0,0.5],[1,0.5]];portConstraint=eastwest;top=0;left=0;right=0;bottom=0;" parent="TN94Z9QFUKXi0vEHUw8P-120" vertex="1">
                    <mxGeometry y="120" width="200" height="30" as="geometry"/>
                </mxCell>
                <mxCell id="TN94Z9QFUKXi0vEHUw8P-131" value="FK" style="shape=partialRectangle;connectable=0;fillColor=none;top=0;left=0;bottom=0;right=0;editable=1;overflow=hidden;whiteSpace=wrap;html=1;" parent="TN94Z9QFUKXi0vEHUw8P-130" vertex="1">
                    <mxGeometry width="30" height="30" as="geometry">
                        <mxRectangle width="30" height="30" as="alternateBounds"/>
                    </mxGeometry>
                </mxCell>
                <mxCell id="TN94Z9QFUKXi0vEHUw8P-132" value="vehicleId: int" style="shape=partialRectangle;connectable=0;fillColor=none;top=0;left=0;bottom=0;right=0;align=left;spacingLeft=6;overflow=hidden;whiteSpace=wrap;html=1;" parent="TN94Z9QFUKXi0vEHUw8P-130" vertex="1">
                    <mxGeometry x="30" width="170" height="30" as="geometry">
                        <mxRectangle width="170" height="30" as="alternateBounds"/>
                    </mxGeometry>
                </mxCell>
                <mxCell id="TN94Z9QFUKXi0vEHUw8P-133" value="CompanySettings" style="shape=table;startSize=30;container=1;collapsible=1;childLayout=tableLayout;fixedRows=1;rowLines=0;fontStyle=1;align=center;resizeLast=1;html=1;" parent="1" vertex="1">
                    <mxGeometry x="919.97" y="440" width="200.02999999999975" height="120" as="geometry"/>
                </mxCell>
                <mxCell id="TN94Z9QFUKXi0vEHUw8P-134" value="" style="shape=tableRow;horizontal=0;startSize=0;swimlaneHead=0;swimlaneBody=0;fillColor=none;collapsible=0;dropTarget=0;points=[[0,0.5],[1,0.5]];portConstraint=eastwest;top=0;left=0;right=0;bottom=1;" parent="TN94Z9QFUKXi0vEHUw8P-133" vertex="1">
                    <mxGeometry y="30" width="200.02999999999975" height="30" as="geometry"/>
                </mxCell>
                <mxCell id="TN94Z9QFUKXi0vEHUw8P-135" value="PK" style="shape=partialRectangle;connectable=0;fillColor=none;top=0;left=0;bottom=0;right=0;fontStyle=1;overflow=hidden;whiteSpace=wrap;html=1;" parent="TN94Z9QFUKXi0vEHUw8P-134" vertex="1">
                    <mxGeometry width="30" height="30" as="geometry">
                        <mxRectangle width="30" height="30" as="alternateBounds"/>
                    </mxGeometry>
                </mxCell>
                <mxCell id="TN94Z9QFUKXi0vEHUw8P-136" value="UniqueID" style="shape=partialRectangle;connectable=0;fillColor=none;top=0;left=0;bottom=0;right=0;align=left;spacingLeft=6;fontStyle=5;overflow=hidden;whiteSpace=wrap;html=1;" parent="TN94Z9QFUKXi0vEHUw8P-134" vertex="1">
                    <mxGeometry x="30" width="170.02999999999975" height="30" as="geometry">
                        <mxRectangle width="170.02999999999975" height="30" as="alternateBounds"/>
                    </mxGeometry>
                </mxCell>
                <mxCell id="TN94Z9QFUKXi0vEHUw8P-137" value="" style="shape=tableRow;horizontal=0;startSize=0;swimlaneHead=0;swimlaneBody=0;fillColor=none;collapsible=0;dropTarget=0;points=[[0,0.5],[1,0.5]];portConstraint=eastwest;top=0;left=0;right=0;bottom=0;" parent="TN94Z9QFUKXi0vEHUw8P-133" vertex="1">
                    <mxGeometry y="60" width="200.02999999999975" height="30" as="geometry"/>
                </mxCell>
                <mxCell id="TN94Z9QFUKXi0vEHUw8P-138" value="" style="shape=partialRectangle;connectable=0;fillColor=none;top=0;left=0;bottom=0;right=0;editable=1;overflow=hidden;whiteSpace=wrap;html=1;" parent="TN94Z9QFUKXi0vEHUw8P-137" vertex="1">
                    <mxGeometry width="30" height="30" as="geometry">
                        <mxRectangle width="30" height="30" as="alternateBounds"/>
                    </mxGeometry>
                </mxCell>
                <mxCell id="TN94Z9QFUKXi0vEHUw8P-139" value="veiclePerUser: int" style="shape=partialRectangle;connectable=0;fillColor=none;top=0;left=0;bottom=0;right=0;align=left;spacingLeft=6;overflow=hidden;whiteSpace=wrap;html=1;" parent="TN94Z9QFUKXi0vEHUw8P-137" vertex="1">
                    <mxGeometry x="30" width="170.02999999999975" height="30" as="geometry">
                        <mxRectangle width="170.02999999999975" height="30" as="alternateBounds"/>
                    </mxGeometry>
                </mxCell>
                <mxCell id="2" value="" style="shape=tableRow;horizontal=0;startSize=0;swimlaneHead=0;swimlaneBody=0;fillColor=none;collapsible=0;dropTarget=0;points=[[0,0.5],[1,0.5]];portConstraint=eastwest;top=0;left=0;right=0;bottom=0;" vertex="1" parent="TN94Z9QFUKXi0vEHUw8P-133">
                    <mxGeometry y="90" width="200.02999999999975" height="30" as="geometry"/>
                </mxCell>
                <mxCell id="3" value="" style="shape=partialRectangle;connectable=0;fillColor=none;top=0;left=0;bottom=0;right=0;editable=1;overflow=hidden;whiteSpace=wrap;html=1;" vertex="1" parent="2">
                    <mxGeometry width="30" height="30" as="geometry">
                        <mxRectangle width="30" height="30" as="alternateBounds"/>
                    </mxGeometry>
                </mxCell>
                <mxCell id="4" value="totalP&lt;span style=&quot;background-color: transparent;&quot;&gt;arkingSpaces: int&lt;/span&gt;" style="shape=partialRectangle;connectable=0;fillColor=none;top=0;left=0;bottom=0;right=0;align=left;spacingLeft=6;overflow=hidden;whiteSpace=wrap;html=1;" vertex="1" parent="2">
                    <mxGeometry x="30" width="170.02999999999975" height="30" as="geometry">
                        <mxRectangle width="170.02999999999975" height="30" as="alternateBounds"/>
                    </mxGeometry>
                </mxCell>
                <mxCell id="TN94Z9QFUKXi0vEHUw8P-140" value="Photo" style="shape=table;startSize=30;container=1;collapsible=1;childLayout=tableLayout;fixedRows=1;rowLines=0;fontStyle=1;align=center;resizeLast=1;html=1;" parent="1" vertex="1">
                    <mxGeometry x="40" y="680" width="200" height="90" as="geometry"/>
                </mxCell>
                <mxCell id="TN94Z9QFUKXi0vEHUw8P-141" value="" style="shape=tableRow;horizontal=0;startSize=0;swimlaneHead=0;swimlaneBody=0;fillColor=none;collapsible=0;dropTarget=0;points=[[0,0.5],[1,0.5]];portConstraint=eastwest;top=0;left=0;right=0;bottom=1;" parent="TN94Z9QFUKXi0vEHUw8P-140" vertex="1">
                    <mxGeometry y="30" width="200" height="30" as="geometry"/>
                </mxCell>
                <mxCell id="TN94Z9QFUKXi0vEHUw8P-142" value="PK" style="shape=partialRectangle;connectable=0;fillColor=none;top=0;left=0;bottom=0;right=0;fontStyle=1;overflow=hidden;whiteSpace=wrap;html=1;" parent="TN94Z9QFUKXi0vEHUw8P-141" vertex="1">
                    <mxGeometry width="30" height="30" as="geometry">
                        <mxRectangle width="30" height="30" as="alternateBounds"/>
                    </mxGeometry>
                </mxCell>
                <mxCell id="TN94Z9QFUKXi0vEHUw8P-143" value="UniqueID" style="shape=partialRectangle;connectable=0;fillColor=none;top=0;left=0;bottom=0;right=0;align=left;spacingLeft=6;fontStyle=5;overflow=hidden;whiteSpace=wrap;html=1;" parent="TN94Z9QFUKXi0vEHUw8P-141" vertex="1">
                    <mxGeometry x="30" width="170" height="30" as="geometry">
                        <mxRectangle width="170" height="30" as="alternateBounds"/>
                    </mxGeometry>
                </mxCell>
                <mxCell id="TN94Z9QFUKXi0vEHUw8P-144" value="" style="shape=tableRow;horizontal=0;startSize=0;swimlaneHead=0;swimlaneBody=0;fillColor=none;collapsible=0;dropTarget=0;points=[[0,0.5],[1,0.5]];portConstraint=eastwest;top=0;left=0;right=0;bottom=0;" parent="TN94Z9QFUKXi0vEHUw8P-140" vertex="1">
                    <mxGeometry y="60" width="200" height="30" as="geometry"/>
                </mxCell>
                <mxCell id="TN94Z9QFUKXi0vEHUw8P-145" value="" style="shape=partialRectangle;connectable=0;fillColor=none;top=0;left=0;bottom=0;right=0;editable=1;overflow=hidden;whiteSpace=wrap;html=1;" parent="TN94Z9QFUKXi0vEHUw8P-144" vertex="1">
                    <mxGeometry width="30" height="30" as="geometry">
                        <mxRectangle width="30" height="30" as="alternateBounds"/>
                    </mxGeometry>
                </mxCell>
                <mxCell id="TN94Z9QFUKXi0vEHUw8P-146" value="data:&amp;nbsp; varbinary(max)" style="shape=partialRectangle;connectable=0;fillColor=none;top=0;left=0;bottom=0;right=0;align=left;spacingLeft=6;overflow=hidden;whiteSpace=wrap;html=1;" parent="TN94Z9QFUKXi0vEHUw8P-144" vertex="1">
                    <mxGeometry x="30" width="170" height="30" as="geometry">
                        <mxRectangle width="170" height="30" as="alternateBounds"/>
                    </mxGeometry>
                </mxCell>
                <mxCell id="TN94Z9QFUKXi0vEHUw8P-153" style="edgeStyle=orthogonalEdgeStyle;rounded=0;orthogonalLoop=1;jettySize=auto;html=1;exitX=1;exitY=0.5;exitDx=0;exitDy=0;" parent="1" source="TN94Z9QFUKXi0vEHUw8P-96" target="TN94Z9QFUKXi0vEHUw8P-24" edge="1">
                    <mxGeometry relative="1" as="geometry"/>
                </mxCell>
                <mxCell id="TN94Z9QFUKXi0vEHUw8P-154" style="edgeStyle=orthogonalEdgeStyle;rounded=0;orthogonalLoop=1;jettySize=auto;html=1;exitX=0;exitY=0.5;exitDx=0;exitDy=0;entryX=1;entryY=0.5;entryDx=0;entryDy=0;" parent="1" source="TN94Z9QFUKXi0vEHUw8P-14" target="TN94Z9QFUKXi0vEHUw8P-24" edge="1">
                    <mxGeometry relative="1" as="geometry">
                        <Array as="points">
                            <mxPoint x="640" y="390"/>
                            <mxPoint x="560" y="390"/>
                            <mxPoint x="560" y="215"/>
                        </Array>
                    </mxGeometry>
                </mxCell>
                <mxCell id="TN94Z9QFUKXi0vEHUw8P-155" style="edgeStyle=orthogonalEdgeStyle;rounded=0;orthogonalLoop=1;jettySize=auto;html=1;exitX=1;exitY=0.5;exitDx=0;exitDy=0;entryX=0;entryY=0.5;entryDx=0;entryDy=0;" parent="1" source="TN94Z9QFUKXi0vEHUw8P-42" target="TN94Z9QFUKXi0vEHUw8P-59" edge="1">
                    <mxGeometry relative="1" as="geometry">
                        <Array as="points">
                            <mxPoint x="600" y="455"/>
                            <mxPoint x="600" y="525"/>
                        </Array>
                    </mxGeometry>
                </mxCell>
                <mxCell id="TN94Z9QFUKXi0vEHUw8P-156" style="edgeStyle=orthogonalEdgeStyle;rounded=0;orthogonalLoop=1;jettySize=auto;html=1;exitX=1;exitY=0.5;exitDx=0;exitDy=0;entryX=1;entryY=0.5;entryDx=0;entryDy=0;" parent="1" source="TN94Z9QFUKXi0vEHUw8P-20" target="TN94Z9QFUKXi0vEHUw8P-59" edge="1">
                    <mxGeometry relative="1" as="geometry"/>
                </mxCell>
                <mxCell id="TN94Z9QFUKXi0vEHUw8P-157" style="edgeStyle=orthogonalEdgeStyle;rounded=0;orthogonalLoop=1;jettySize=auto;html=1;exitX=1;exitY=0.5;exitDx=0;exitDy=0;entryX=0;entryY=0.5;entryDx=0;entryDy=0;" parent="1" source="TN94Z9QFUKXi0vEHUw8P-17" target="TN94Z9QFUKXi0vEHUw8P-133" edge="1">
                    <mxGeometry relative="1" as="geometry"/>
                </mxCell>
                <mxCell id="TN94Z9QFUKXi0vEHUw8P-158" style="edgeStyle=orthogonalEdgeStyle;rounded=0;orthogonalLoop=1;jettySize=auto;html=1;exitX=1;exitY=0.5;exitDx=0;exitDy=0;entryX=0;entryY=0.5;entryDx=0;entryDy=0;" parent="1" source="TN94Z9QFUKXi0vEHUw8P-11" target="TN94Z9QFUKXi0vEHUw8P-103" edge="1">
                    <mxGeometry relative="1" as="geometry"/>
                </mxCell>
                <mxCell id="TN94Z9QFUKXi0vEHUw8P-159" style="edgeStyle=orthogonalEdgeStyle;rounded=0;orthogonalLoop=1;jettySize=auto;html=1;exitX=1;exitY=0.5;exitDx=0;exitDy=0;entryX=1;entryY=0.5;entryDx=0;entryDy=0;" parent="1" source="TN94Z9QFUKXi0vEHUw8P-45" target="TN94Z9QFUKXi0vEHUw8P-52" edge="1">
                    <mxGeometry relative="1" as="geometry">
                        <Array as="points">
                            <mxPoint x="560" y="485"/>
                            <mxPoint x="560" y="605"/>
                        </Array>
                    </mxGeometry>
                </mxCell>
                <mxCell id="TN94Z9QFUKXi0vEHUw8P-160" style="edgeStyle=orthogonalEdgeStyle;rounded=0;orthogonalLoop=1;jettySize=auto;html=1;exitX=0;exitY=0.5;exitDx=0;exitDy=0;entryX=0;entryY=0.5;entryDx=0;entryDy=0;" parent="1" source="TN94Z9QFUKXi0vEHUw8P-130" target="TN94Z9QFUKXi0vEHUw8P-81" edge="1">
                    <mxGeometry relative="1" as="geometry"/>
                </mxCell>
                <mxCell id="TN94Z9QFUKXi0vEHUw8P-161" style="edgeStyle=orthogonalEdgeStyle;rounded=0;orthogonalLoop=1;jettySize=auto;html=1;exitX=1;exitY=0.5;exitDx=0;exitDy=0;entryX=1;entryY=0.5;entryDx=0;entryDy=0;" parent="1" source="TN94Z9QFUKXi0vEHUw8P-99" target="TN94Z9QFUKXi0vEHUw8P-141" edge="1">
                    <mxGeometry relative="1" as="geometry">
                        <Array as="points">
                            <mxPoint x="280" y="425"/>
                            <mxPoint x="280" y="725"/>
                        </Array>
                    </mxGeometry>
                </mxCell>
                <mxCell id="TN94Z9QFUKXi0vEHUw8P-162" style="edgeStyle=orthogonalEdgeStyle;rounded=0;orthogonalLoop=1;jettySize=auto;html=1;exitX=0;exitY=0.5;exitDx=0;exitDy=0;entryX=1;entryY=0.5;entryDx=0;entryDy=0;" parent="1" source="TN94Z9QFUKXi0vEHUw8P-48" target="TN94Z9QFUKXi0vEHUw8P-141" edge="1">
                    <mxGeometry relative="1" as="geometry">
                        <Array as="points">
                            <mxPoint x="320" y="510"/>
                            <mxPoint x="280" y="510"/>
                            <mxPoint x="280" y="725"/>
                        </Array>
                    </mxGeometry>
                </mxCell>
                <mxCell id="TN94Z9QFUKXi0vEHUw8P-163" value="GoogleAuthentication" style="shape=table;startSize=30;container=1;collapsible=1;childLayout=tableLayout;fixedRows=1;rowLines=0;fontStyle=1;align=center;resizeLast=1;html=1;" parent="1" vertex="1">
                    <mxGeometry x="320" y="40" width="199.97000000000003" height="120" as="geometry"/>
                </mxCell>
                <mxCell id="TN94Z9QFUKXi0vEHUw8P-164" value="" style="shape=tableRow;horizontal=0;startSize=0;swimlaneHead=0;swimlaneBody=0;fillColor=none;collapsible=0;dropTarget=0;points=[[0,0.5],[1,0.5]];portConstraint=eastwest;top=0;left=0;right=0;bottom=1;" parent="TN94Z9QFUKXi0vEHUw8P-163" vertex="1">
                    <mxGeometry y="30" width="199.97000000000003" height="30" as="geometry"/>
                </mxCell>
                <mxCell id="TN94Z9QFUKXi0vEHUw8P-165" value="PK" style="shape=partialRectangle;connectable=0;fillColor=none;top=0;left=0;bottom=0;right=0;fontStyle=1;overflow=hidden;whiteSpace=wrap;html=1;" parent="TN94Z9QFUKXi0vEHUw8P-164" vertex="1">
                    <mxGeometry width="30" height="30" as="geometry">
                        <mxRectangle width="30" height="30" as="alternateBounds"/>
                    </mxGeometry>
                </mxCell>
                <mxCell id="TN94Z9QFUKXi0vEHUw8P-166" value="UniqueID" style="shape=partialRectangle;connectable=0;fillColor=none;top=0;left=0;bottom=0;right=0;align=left;spacingLeft=6;fontStyle=5;overflow=hidden;whiteSpace=wrap;html=1;" parent="TN94Z9QFUKXi0vEHUw8P-164" vertex="1">
                    <mxGeometry x="30" width="169.97000000000003" height="30" as="geometry">
                        <mxRectangle width="169.97000000000003" height="30" as="alternateBounds"/>
                    </mxGeometry>
                </mxCell>
                <mxCell id="TN94Z9QFUKXi0vEHUw8P-167" value="" style="shape=tableRow;horizontal=0;startSize=0;swimlaneHead=0;swimlaneBody=0;fillColor=none;collapsible=0;dropTarget=0;points=[[0,0.5],[1,0.5]];portConstraint=eastwest;top=0;left=0;right=0;bottom=0;" parent="TN94Z9QFUKXi0vEHUw8P-163" vertex="1">
                    <mxGeometry y="60" width="199.97000000000003" height="30" as="geometry"/>
                </mxCell>
                <mxCell id="TN94Z9QFUKXi0vEHUw8P-168" value="" style="shape=partialRectangle;connectable=0;fillColor=none;top=0;left=0;bottom=0;right=0;editable=1;overflow=hidden;whiteSpace=wrap;html=1;" parent="TN94Z9QFUKXi0vEHUw8P-167" vertex="1">
                    <mxGeometry width="30" height="30" as="geometry">
                        <mxRectangle width="30" height="30" as="alternateBounds"/>
                    </mxGeometry>
                </mxCell>
                <mxCell id="TN94Z9QFUKXi0vEHUw8P-169" value="token: varchar(255)" style="shape=partialRectangle;connectable=0;fillColor=none;top=0;left=0;bottom=0;right=0;align=left;spacingLeft=6;overflow=hidden;whiteSpace=wrap;html=1;" parent="TN94Z9QFUKXi0vEHUw8P-167" vertex="1">
                    <mxGeometry x="30" width="169.97000000000003" height="30" as="geometry">
                        <mxRectangle width="169.97000000000003" height="30" as="alternateBounds"/>
                    </mxGeometry>
                </mxCell>
                <mxCell id="TN94Z9QFUKXi0vEHUw8P-170" value="" style="shape=tableRow;horizontal=0;startSize=0;swimlaneHead=0;swimlaneBody=0;fillColor=none;collapsible=0;dropTarget=0;points=[[0,0.5],[1,0.5]];portConstraint=eastwest;top=0;left=0;right=0;bottom=0;" parent="TN94Z9QFUKXi0vEHUw8P-163" vertex="1">
                    <mxGeometry y="90" width="199.97000000000003" height="30" as="geometry"/>
                </mxCell>
                <mxCell id="TN94Z9QFUKXi0vEHUw8P-171" value="FK" style="shape=partialRectangle;connectable=0;fillColor=none;top=0;left=0;bottom=0;right=0;editable=1;overflow=hidden;whiteSpace=wrap;html=1;" parent="TN94Z9QFUKXi0vEHUw8P-170" vertex="1">
                    <mxGeometry width="30" height="30" as="geometry">
                        <mxRectangle width="30" height="30" as="alternateBounds"/>
                    </mxGeometry>
                </mxCell>
                <mxCell id="TN94Z9QFUKXi0vEHUw8P-172" value="idUser: int" style="shape=partialRectangle;connectable=0;fillColor=none;top=0;left=0;bottom=0;right=0;align=left;spacingLeft=6;overflow=hidden;whiteSpace=wrap;html=1;" parent="TN94Z9QFUKXi0vEHUw8P-170" vertex="1">
                    <mxGeometry x="30" width="169.97000000000003" height="30" as="geometry">
                        <mxRectangle width="169.97000000000003" height="30" as="alternateBounds"/>
                    </mxGeometry>
                </mxCell>
                <mxCell id="TN94Z9QFUKXi0vEHUw8P-173" style="edgeStyle=orthogonalEdgeStyle;rounded=0;orthogonalLoop=1;jettySize=auto;html=1;exitX=1;exitY=0.5;exitDx=0;exitDy=0;entryX=1;entryY=0.5;entryDx=0;entryDy=0;" parent="1" source="TN94Z9QFUKXi0vEHUw8P-170" target="TN94Z9QFUKXi0vEHUw8P-24" edge="1">
                    <mxGeometry relative="1" as="geometry">
                        <Array as="points">
                            <mxPoint x="580" y="145"/>
                            <mxPoint x="580" y="215"/>
                        </Array>
                    </mxGeometry>
                </mxCell>
                <mxCell id="TTbelKC414xdq9f2QRjn-4" style="edgeStyle=orthogonalEdgeStyle;rounded=0;orthogonalLoop=1;jettySize=auto;html=1;entryX=0;entryY=0.5;entryDx=0;entryDy=0;" parent="1" source="TTbelKC414xdq9f2QRjn-1" target="TN94Z9QFUKXi0vEHUw8P-2" edge="1">
                    <mxGeometry relative="1" as="geometry">
                        <Array as="points">
                            <mxPoint x="600" y="425"/>
                            <mxPoint x="600" y="245"/>
                        </Array>
                    </mxGeometry>
                </mxCell>
            </root>
        </mxGraphModel>
    </diagram>
</mxfile>